<svg xmlns="http://www.w3.org/2000/svg" width="495" height="537" viewBox="0 0 495 537">
  <g fill="none" fill-rule="evenodd">
    <path stroke="#000" stroke-linecap="square" stroke-width="20" d="M246.5,526.839844 L246.5,15.2929688"/>
    <path stroke="#000" stroke-width="10" d="M251.5,419.738281 C298.854167,468.201823 350.822917,478.951823 407.40625,451.988281 C463.989583,425.02474 491.174479,376.359375 488.960938,305.992187 L345.757813,373.328125 C330.382341,377.253282 320.180519,372.606147 315.152344,359.386719 C310.124169,346.167291 314.888492,336.518853 329.445313,330.441406 L479.5,257.066406 C476.545124,241.645723 473.950072,230.203015 471.714844,222.738281 C469.479616,215.273548 465.617636,205.152454 460.128906,192.375 L345.757813,245.566406 C330.382341,251.329804 320.180519,248.191226 315.152344,236.150673 C310.124169,224.11012 314.888492,212.884115 329.445313,202.472656 L434.871094,153.0625 C430.532019,144.054439 424.860144,134.320064 417.855469,123.859375 C410.850794,113.398686 403.527877,103.726811 395.886719,94.84375 L345.757813,118.503906 C330.382341,123.19401 320.180519,119.5 315.152344,107.421875 C310.124169,95.34375 313.203596,84.8567708 324.390625,75.9609375 L358.394531,61.0117187 C334.028907,42.7744217 315.045834,30.2197342 301.445313,23.3476563 C287.844791,16.4755783 271.196353,11.0263596 251.5,7 L251.5,419.738281 Z"/>
    <path stroke="#000" stroke-width="10" d="M5,420.078125 C52.3541667,468.541667 104.322917,479.291667 160.90625,452.328125 C217.489583,425.364583 244.674479,376.699219 242.460938,306.332031 L99.2578125,373.667969 C83.8823415,377.593126 73.6805186,372.94599 68.6523438,359.726562 C63.6241689,346.507135 68.3884919,336.858697 82.9453125,330.78125 L233,257.40625 C230.045124,241.985567 227.450072,230.542859 225.214844,223.078125 C222.979616,215.613391 219.117636,205.492298 213.628906,192.714844 L99.2578125,245.90625 C83.8823415,251.669647 73.6805186,248.53107 68.6523438,236.490517 C63.6241689,224.449964 68.3884919,213.223958 82.9453125,202.8125 L188.371094,153.402344 C184.032019,144.394283 178.360144,134.659908 171.355469,124.199219 C164.350794,113.73853 157.027877,104.066655 149.386719,95.1835938 L99.2578125,118.84375 C83.8823415,123.533854 73.6805186,119.839844 68.6523438,107.761719 C63.6241689,95.6835938 66.703596,85.1966146 77.890625,76.3007813 L111.894531,61.3515625 C87.528907,43.1142654 68.5458341,30.5595779 54.9453125,23.6875 C41.3447909,16.8154221 24.6963534,11.3662033 5,7.33984375 L5,420.078125 Z" transform="matrix(-1 0 0 1 247.586 0)"/>
  </g>
</svg>
